<svg xmlns="http://www.w3.org/2000/svg" xmlns:svgjs="http://svgjs.com/svgjs" xmlns:xlink="http://www.w3.org/1999/xlink" width="288" height="288"><svg xmlns="http://www.w3.org/2000/svg" width="288" height="288" viewBox="0 0 24 24"><g fill="none" stroke="#000" stroke-linecap="round" stroke-linejoin="round" class="colorStroke303c42 svgStroke" data-name="&amp;lt;Group&amp;gt;"><path fill="#fff" d="M23.21 11.29 12.71.79a1 1 0 0 0-1.41 0L.79 11.29a1 1 0 0 0 0 1.41l10.5 10.5a1 1 0 0 0 1.41 0l10.5-10.5a1 1 0 0 0 0-1.41ZM8.6 3.6l2.34 2.34M12 8.5v7" class="color000 svgShape" data-name="&amp;lt;Path&amp;gt;"/><circle cx="12" cy="7" r="1.5" fill="#fff" class="color000 svgShape" data-name="&amp;lt;Path&amp;gt;"/><circle cx="17" cy="12" r="1.5" fill="#fff" class="color000 svgShape" data-name="&amp;lt;Path&amp;gt;"/><circle cx="12" cy="17" r="1.5" fill="#fff" class="color000 svgShape" data-name="&amp;lt;Path&amp;gt;"/><path fill="#fff" d="m13.05 8.07 2.88 2.88" class="color000 svgShape" data-name="&amp;lt;Path&amp;gt;"/></g></svg></svg>